M48
;GenerationSoftware,Autodesk,EAGLE,9.5.2*%
;CreationDate,2021-07-23T01:40:16Z*%
FMAT,2
ICI,OFF
METRIC,TZ,000.000
T18C0.300
T17C0.350
T16C0.400
T15C0.787
T14C0.813
T13C0.914
T12C1.000
T11C1.016
T10C1.100
T9C1.118
T8C1.320
T7C1.321
T6C1.397
T5C1.803
T4C2.750
T3C3.000
T2C3.200
T1C3.302
%
G90
M71
T1
X340500Y228660
X340500Y165160
T2
X341500Y144840
X341500Y81340
X333600Y144840
X333600Y81340
T3
X12000Y298000
X12000Y12000
X344980Y5000
X345030Y305050
X327060Y154000
T4
X82460Y253420
X82460Y302420
X24460Y253420
X24460Y302420
T5
X168589Y211020
X228321Y211050
X233020Y211050
X237719Y211050
X158871Y296870
X163570Y296870
X168269Y296870
X228041Y297100
X232740Y297100
X237439Y297100
X315861Y297250
X320560Y297250
X334520Y261261
X334520Y265960
X334520Y270659
X228061Y61680
X228261Y131340
X159021Y131170
X168719Y62110
X164020Y62110
X159321Y62110
X237459Y61680
X232760Y61680
X325259Y297250
X14021Y98820
X18720Y98820
X168419Y131170
X23419Y98820
X163720Y131170
X232960Y131340
X237659Y131340
X159191Y211020
X163890Y211020
T6
X310870Y279370
X287050Y269910
X287050Y285150
X295630Y279370
T7
X305564Y296570
X289816Y296570
X294896Y296570
X310644Y296570
T8
X303480Y264610
X316900Y266210
X316900Y263660
X303480Y261910
X316900Y268760
X303480Y267310
T9
X306930Y208330
X304390Y208330
X301850Y208330
X299310Y208330
X299340Y215630
X301880Y215630
X304420Y215630
X306960Y215630
X306960Y223250
X304420Y223250
X301880Y223250
X299340Y223250
X324750Y215450
X327290Y215450
X329830Y215450
X332370Y215450
X332370Y223070
X329830Y223070
X327290Y223070
X324750Y223070
X324700Y170740
X327240Y170740
X329780Y170740
X332320Y170740
X332320Y178360
X329780Y178360
X327240Y178360
X324700Y178360
X324760Y185650
X304410Y170750
X329840Y185650
X332380Y185650
X332380Y193270
X329840Y193270
X327300Y193270
X324760Y193270
X299330Y185740
X301870Y185740
X304410Y185740
X306950Y185740
X306950Y193360
X304410Y193360
X301870Y193360
X299330Y193360
X324730Y200590
X327270Y200590
X329810Y200590
X332350Y200590
X332350Y208210
X329810Y208210
X327270Y208210
X324730Y208210
X327300Y185650
X304070Y272560
X293910Y272560
X299330Y170750
X301870Y170750
X306950Y170750
X306950Y178370
X304410Y178370
X301870Y178370
X299330Y178370
X299310Y200710
X301850Y200710
X304390Y200710
X306930Y200710
T10
X333900Y297500
X338900Y297500
T11
X320750Y61400
X318210Y61400
X320750Y58860
X318210Y58860
X315670Y61400
X313130Y61400
X310590Y61400
X308050Y61400
X305510Y61400
X302970Y61400
X315670Y58860
X313130Y58860
X310590Y58860
X308050Y58860
X305510Y58860
X302970Y58860
X341920Y173440
X341920Y176209
X339080Y172069
X339080Y174812
X341920Y178952
X341920Y181721
X341920Y184489
X341920Y187258
X339080Y177581
X339080Y180349
X339080Y183092
X339080Y185861
X341920Y190001
X341920Y192770
X341920Y195538
X341920Y198282
X341920Y201050
X341920Y203819
X341920Y206562
X341920Y209331
X341920Y214842
X341920Y217611
X341920Y220380
X339080Y188630
X339080Y191398
X339080Y194141
X339080Y196910
X339080Y199679
X339080Y202422
X339080Y205190
X339080Y207959
X339080Y210702
X339080Y213471
X339080Y216239
X339080Y218983
X339080Y221751
X341920Y212099
X331170Y58340
X62570Y23950
X62570Y21410
X190960Y259130
X190960Y261670
X121950Y258900
X121950Y261440
X190600Y173010
X190600Y175550
X122280Y172850
X122280Y175390
X190600Y93200
X20210Y140130
X190600Y95740
X122190Y93030
X20210Y142670
X122190Y95570
X121820Y23940
X121820Y26480
X190890Y23810
X190890Y26350
X61680Y137570
X61680Y135030
X292010Y249360
X294550Y249360
X297090Y249360
X299630Y249360
X319350Y249370
X321890Y249370
X324430Y249370
X326970Y249370
X305990Y249390
X308530Y249390
X311070Y249390
X313610Y249390
X334730Y158420
X334730Y155880
X334730Y153340
X334730Y150800
X337270Y158420
X337270Y155880
X337270Y153340
X337270Y150800
X331170Y63420
X331170Y60880
X331170Y55800
X333710Y63420
X333710Y60880
X333710Y58340
X333710Y55800
X53980Y75040
X53980Y77580
X82160Y127620
X82160Y130160
X77510Y203590
X74970Y203590
X72430Y203590
X69890Y203590
X67350Y203590
X64810Y203590
X77510Y206130
X74970Y206130
X72430Y206130
X69890Y206130
X67350Y206130
X64810Y206130
X62270Y203590
X62270Y206130
X59730Y203590
X57190Y203590
X54650Y203590
X52110Y203590
X49570Y203590
X47030Y203590
X59730Y206130
X57190Y206130
X54650Y206130
X52110Y206130
X49570Y206130
X47030Y206130
X44490Y203590
X44490Y206130
X41950Y203590
X39410Y203590
X36870Y203590
X34330Y203590
X31790Y203590
X29250Y203590
X41950Y206130
X39410Y206130
X36870Y206130
X34330Y206130
X31790Y206130
X29250Y206130
X190870Y269320
X190870Y271860
X190870Y274400
X190870Y276940
X122030Y269180
X122030Y271720
X122030Y274260
X122030Y276800
X190700Y183470
X190700Y186010
X190700Y188550
X190700Y191090
X122260Y183260
X122260Y185800
X122260Y188340
X122260Y190880
X190870Y34100
X190870Y36640
X190870Y39180
X190870Y41720
X121780Y34250
X121780Y36790
X121780Y39330
X121780Y41870
X121870Y103370
X121870Y105910
X121870Y108450
X121870Y110990
X190620Y103450
X190620Y105990
X190620Y108530
X190620Y111070
X20210Y124890
X20210Y127430
X20210Y129970
X20210Y132510
X20210Y135050
X20210Y137590
T12
X197790Y279440
X197790Y276900
X197790Y274360
X197790Y271820
X197790Y269280
X197790Y266740
X197790Y264200
X197790Y261660
X197790Y259120
X197790Y256580
X197790Y254040
X223190Y289600
X223190Y287060
X223190Y284520
X223190Y279440
X223190Y276900
X223190Y274360
X223190Y271820
X223190Y269280
X223190Y266740
X223190Y264200
X223190Y261660
X223190Y259120
X223190Y256580
X223190Y254040
X128450Y289350
X128450Y286810
X128450Y284270
X128450Y281730
X128450Y279190
X128450Y276650
X128450Y274110
X128450Y271570
X128450Y269030
X128450Y266490
X128450Y263950
X128450Y261410
X128450Y258870
X128450Y256330
X292070Y258020
X153850Y289350
X153850Y286810
X153850Y284270
X153850Y281730
X153850Y279190
X153850Y276650
X153850Y274110
X153850Y271570
X153850Y269030
X153850Y266490
X153850Y263950
X153850Y261410
X153850Y258870
X153850Y256330
X153850Y253790
X198030Y203510
X198030Y200970
X198030Y198430
X198030Y195890
X198030Y193350
X198030Y190810
X198030Y188270
X198030Y185730
X198030Y183190
X198030Y180650
X198030Y178110
X198030Y175570
X198030Y173030
X198030Y170490
X198030Y167950
X223430Y203510
X223430Y200970
X223430Y198430
X223430Y195890
X223430Y193350
X223430Y190810
X223430Y188270
X223430Y185730
X223430Y183190
X223430Y180650
X223430Y178110
X223430Y175570
X223430Y173030
X223430Y170490
X223430Y167950
X128870Y203330
X128870Y200790
X128870Y198250
X128870Y195710
X128870Y193170
X128870Y190630
X128870Y188090
X128870Y185550
X128870Y183010
X128870Y180470
X128870Y177930
X128870Y175390
X128870Y172850
X128870Y170310
X128870Y167770
X154270Y203330
X154270Y200790
X154270Y198250
X154270Y195710
X154270Y193170
X154270Y190630
X154270Y188090
X154270Y185550
X154270Y183010
X154270Y180470
X154270Y177930
X154270Y175390
X154270Y172850
X154270Y170310
X154270Y167770
X197840Y123700
X197840Y121160
X197840Y118620
X197840Y116080
X197840Y113540
X197840Y111000
X197840Y108460
X197840Y105920
X197840Y103380
X197840Y100840
X197840Y98300
X197840Y95760
X197840Y93220
X197840Y90680
X197840Y88140
X223240Y123700
X223240Y121160
X223240Y118620
X223240Y116080
X223240Y113540
X223240Y111000
X223240Y108460
X223240Y105920
X223240Y103380
X223240Y100840
X223240Y98300
X223240Y95760
X223240Y93220
X223240Y90680
X223240Y88140
X128640Y123510
X128640Y120970
X128640Y118430
X128640Y115890
X128640Y113350
X128640Y110810
X128640Y108270
X128640Y105730
X128640Y103190
X128640Y100650
X128640Y98110
X128640Y95570
X128640Y93030
X128640Y90490
X128640Y87950
X154040Y123510
X154040Y120970
X154040Y118430
X154040Y115890
X154040Y113350
X154040Y110810
X154040Y108270
X154040Y105730
X154040Y103190
X154040Y100650
X154040Y98110
X154040Y95570
X154040Y93030
X154040Y90490
X154040Y87950
X128670Y54420
X128670Y51880
X128670Y49340
X128670Y46800
X128670Y44260
X128670Y41720
X128670Y39180
X128670Y36640
X128670Y34100
X128670Y31560
X128670Y29020
X128670Y26480
X128670Y23940
X128670Y21400
X128670Y18860
X154070Y54420
X154070Y51880
X154070Y49340
X154070Y46800
X154070Y44260
X154070Y41720
X154070Y39180
X154070Y36640
X154070Y34100
X154070Y31560
X154070Y29020
X154070Y26480
X154070Y23940
X154070Y21400
X154070Y18860
X197620Y54240
X197620Y51700
X197620Y49160
X197620Y46620
X197620Y44080
X197620Y41540
X197620Y39000
X197620Y36460
X197620Y33920
X197620Y31380
X197620Y28840
X197620Y26300
X197620Y21220
X197620Y18680
X223020Y54240
X223020Y51700
X223020Y49160
X223020Y46620
X223020Y44080
X223020Y41540
X223020Y39000
X223020Y36460
X223020Y33920
X223020Y31380
X223020Y28840
X223020Y26300
X223020Y23760
X223020Y21220
X223020Y18680
X53690Y107080
X53690Y109620
X53690Y112160
X53690Y114700
X53690Y117240
X53690Y119780
X53690Y122320
X53690Y124860
X53690Y127400
X53690Y129940
X53690Y132480
X53690Y135020
X53690Y137560
X53690Y140100
X53690Y142640
X28290Y107080
X28290Y109620
X28290Y112160
X28290Y114700
X28290Y117240
X28290Y119780
X28290Y122320
X28290Y124860
X28290Y127400
X28290Y129940
X28290Y132480
X28290Y135020
X28290Y137560
X28290Y140100
X28290Y142640
X223190Y281980
X338680Y242930
X341820Y136635
X341820Y133865
X341820Y131095
X341820Y128325
X341820Y125555
X341820Y122785
X341820Y120015
X341820Y117245
X341820Y114475
X341820Y111705
X341820Y108935
X341820Y106165
X341820Y103395
X341820Y100625
X341820Y97855
X341820Y95085
X341820Y92315
X341820Y89545
X335020Y89545
X335020Y92315
X335020Y95085
X335020Y97855
X335020Y100625
X335020Y103395
X335020Y106165
X335020Y108935
X335020Y111705
X259170Y303290
X264780Y296840
X272000Y296690
X281290Y296110
X335020Y114475
X335020Y117245
X335020Y120015
X335020Y122785
X128450Y253790
X335020Y125555
X335020Y128325
X335020Y131095
X335020Y133865
X335020Y136635
X338980Y138020
X338980Y135250
X338980Y132480
X338980Y129710
X338980Y126940
X338980Y124170
X338980Y121400
X338980Y118630
X338980Y113090
X338980Y110320
X338980Y107550
X338980Y104780
X338980Y102010
X338980Y99240
X338980Y96470
X338980Y93700
X338980Y90930
X338980Y88160
X332180Y88160
X332180Y90930
X332180Y93700
X332180Y96470
X332180Y99240
X332180Y102010
X332180Y104780
X332180Y107550
X332180Y110320
X332180Y113090
X332180Y115860
X332180Y118630
X332180Y121400
X332180Y124170
X332180Y126940
X332180Y129710
X332180Y132480
X332180Y135250
X332180Y138020
X29260Y223930
X29260Y226470
X31800Y223930
X31800Y226470
X34340Y223930
X34340Y226470
X36880Y223930
X36880Y226470
X39420Y223930
X39420Y226470
X41960Y223930
X41960Y226470
X44500Y223930
X44500Y226470
X47040Y223930
X47040Y226470
X49580Y223930
X49580Y226470
X52120Y223930
X52120Y226470
X54660Y223930
X54660Y226470
X57200Y223930
X57200Y226470
X338980Y115860
X59740Y223930
X59740Y226470
X62280Y223930
X62280Y226470
X64820Y223930
X64820Y226470
X67360Y223930
X67360Y226470
X69900Y223930
X69900Y226470
X72440Y223930
X72440Y226470
X74980Y223930
X74980Y226470
X77520Y223930
X77520Y226470
X197790Y289600
X197790Y287060
X197790Y284520
X197790Y281980
X197620Y23760
T13
X332250Y276500
X317010Y276500
X317120Y281980
X332360Y281980
T14
X209420Y196320
X149170Y167870
X146630Y167870
X144090Y167870
X141550Y167870
X139010Y167870
X136470Y167870
X133930Y167870
X142820Y195870
X140280Y195870
X218060Y88350
X215520Y88350
X212980Y88350
X210440Y88350
X207900Y88350
X205360Y88350
X202820Y88350
X211710Y116350
X209170Y116350
X148950Y88180
X146410Y88180
X143870Y88180
X141330Y88180
X138790Y88180
X136250Y88180
X133710Y88180
X142600Y116180
X140060Y116180
X148980Y19100
X146440Y19100
X143900Y19100
X141360Y19100
X138820Y19100
X136280Y19100
X133740Y19100
X142630Y47100
X140090Y47100
X217890Y18750
X215350Y18750
X212810Y18750
X210270Y18750
X207730Y18750
X205190Y18750
X202650Y18750
X211540Y46750
X209000Y46750
X33430Y142450
X35970Y142450
X38510Y142450
X41050Y142450
X43590Y142450
X46130Y142450
X48670Y142450
X39780Y114450
X42320Y114450
X216020Y187430
X205860Y187430
X215940Y190790
X205780Y190790
X146950Y184720
X136790Y184720
X146930Y187670
X136770Y187670
X146810Y190630
X136650Y190630
X214390Y104690
X204230Y104690
X214370Y107790
X204210Y107790
X214350Y110810
X204190Y110810
X146680Y104470
X136520Y104470
X146610Y107620
X136450Y107620
X146630Y110800
X136470Y110800
X147220Y34590
X137060Y34590
X146940Y38170
X136780Y38170
X146840Y41430
X136680Y41430
X215730Y35080
X205570Y35080
X215670Y38110
X205510Y38110
X215570Y41390
X205410Y41390
X31510Y126730
X41670Y126730
X31410Y123180
X41570Y123180
X31400Y119720
X41560Y119720
X215600Y270700
X205440Y270700
X341360Y275320
X341360Y285480
X300890Y285330
X311050Y285330
X310030Y269610
X310030Y259450
X215690Y273760
X205530Y273760
X215710Y276890
X205550Y276890
X146430Y270750
X136270Y270750
X146410Y273780
X136250Y273780
X146410Y276700
X136250Y276700
X216040Y184230
X205880Y184230
X326000Y263570
X326000Y261030
X234590Y290880
X234590Y285800
X325940Y268230
X165710Y282340
X165710Y279800
X159970Y279800
X159970Y282340
X165700Y290610
X165700Y285530
X235150Y196590
X235150Y194050
X229560Y193860
X229560Y196400
X235120Y204930
X235120Y199850
X165820Y196390
X165820Y193850
X160260Y193870
X160260Y196410
X165820Y204740
X165820Y199660
X234760Y116610
X234760Y114070
X229720Y114030
X229720Y116570
X234550Y124830
X234550Y119750
X165210Y116500
X165210Y113960
X160150Y113950
X160150Y116490
X165180Y124670
X165180Y119590
X165970Y47310
X165970Y44770
X160340Y44790
X160340Y47330
X165990Y55760
X165990Y50680
X234600Y47070
X234600Y44530
X229500Y44530
X229500Y47070
X234580Y55510
X234580Y50430
X230840Y290870
X230840Y285790
X227330Y290860
X227330Y285780
X161860Y290620
X161860Y285540
X158210Y290620
X158210Y285540
X231250Y204960
X231250Y199880
X227630Y204940
X227630Y199860
X161980Y204750
X158490Y204740
X158490Y199660
X230910Y124890
X230910Y119810
X227560Y124880
X227560Y119800
X161570Y124680
X161570Y119600
X158300Y124670
X158300Y119590
X162180Y55790
X162180Y50710
X158610Y55800
X158610Y50720
X230860Y55510
X230860Y50430
X227350Y55490
X227350Y50410
X16820Y114060
X16820Y116600
X22330Y116600
X22330Y114060
X16870Y105530
X16870Y110610
X20540Y105560
X20540Y110640
X24050Y105610
X24050Y110690
X325940Y270770
X296280Y266980
X296280Y261900
X307620Y272650
X312700Y272650
X234650Y282750
X234650Y280210
X229140Y280210
X229140Y282750
X30380Y21530
X30380Y24070
X30380Y26610
X30380Y29150
X30380Y31690
X30380Y34230
X30380Y36770
X30380Y39310
X30380Y41850
X51580Y21530
X51580Y24070
X51580Y26610
X51580Y29150
X51580Y31690
X51580Y34230
X51580Y36770
X51580Y39310
X51580Y41850
X190770Y291980
X193310Y291980
X341790Y269840
X341790Y272380
X295900Y285390
X304530Y122130
X304530Y119590
X304830Y151490
X304830Y148950
X298440Y285390
X121470Y292040
X124010Y292040
X190780Y206120
X193320Y206120
X121760Y205900
X124300Y205900
X190870Y126320
X193410Y126320
X121860Y125850
X124400Y125850
X121740Y57050
X124280Y57050
X190640Y57010
X193180Y57010
X60590Y103630
X58050Y103630
X190790Y286980
X193330Y286980
X121480Y286910
X124020Y286910
X190800Y200980
X193340Y200980
X121730Y200880
X124270Y200880
X190870Y121220
X193410Y121220
X121860Y121000
X124400Y121000
X121730Y52050
X124270Y52050
X190630Y52030
X193170Y52030
X60550Y109220
X58010Y109220
X190800Y281970
X193340Y281970
X121460Y281960
X124000Y281960
X190810Y196000
X320770Y176760
X320770Y171680
X295350Y176780
X295350Y171700
X320750Y191640
X320750Y186560
X295350Y191780
X295350Y186700
X320770Y206640
X320770Y201560
X295320Y206800
X295320Y201720
X320760Y221490
X320760Y216410
X295340Y221660
X295340Y216580
X40420Y164010
X42960Y164010
X42960Y171630
X40420Y171630
X193350Y196000
X121720Y195770
X124260Y195770
X190900Y116170
X193440Y116170
X121890Y115790
X124430Y115790
X121740Y46880
X124280Y46880
X190680Y46780
X193220Y46780
X60480Y114660
X57940Y114660
X218140Y254200
X215600Y254200
X213060Y254200
X210520Y254200
X207980Y254200
X205440Y254200
X202900Y254200
X211790Y282200
X209250Y282200
X148750Y254160
X146210Y254160
X143670Y254160
X141130Y254160
X138590Y254160
X136050Y254160
X133510Y254160
X142400Y282160
X139860Y282160
X218310Y168320
X215770Y168320
X213230Y168320
X210690Y168320
X208150Y168320
X205610Y168320
X203070Y168320
X211960Y196320
X161980Y199670
T15
X293360Y103130
X300940Y143890
X293360Y113290
X293360Y110750
X293360Y108210
X293360Y105670
X293320Y151510
X293320Y148970
X293360Y100590
X293360Y98050
X300980Y98050
X300980Y100590
X300980Y103130
X300980Y105670
X300980Y108210
X300980Y110750
X300940Y141350
X300980Y113290
X293320Y141350
X300980Y115830
X300940Y138810
X300940Y136270
X300940Y133730
X293320Y143890
X300980Y118370
X300980Y120910
X293320Y146430
X300940Y131190
X293360Y120910
X293360Y118370
X293360Y115830
X293320Y138810
X293320Y136270
X293320Y133730
X293320Y131190
X293320Y128650
X300940Y128650
X300940Y146430
X300940Y148970
X300940Y151510
T16
X299310Y206500
X302840Y206200
X324730Y206190
X328250Y206270
X299330Y191450
X303340Y191530
X327890Y191210
X292830Y171700
X299320Y176660
X304060Y176450
X324700Y176390
X328550Y176610
X140250Y192760
X292820Y179760
X140300Y120460
X299310Y172980
X131930Y195720
X139850Y199930
X108350Y140100
X131760Y203350
X132440Y123500
X131850Y54430
X217890Y49250
X201270Y123680
X321440Y263680
X205590Y59550
X207440Y47420
X204630Y58700
X203620Y57660
X204610Y48297
X200910Y46620
X206850Y29750
X203270Y31960
X132200Y46800
X138320Y29390
X206018Y47768
X135000Y32250
X132010Y115900
X138580Y98580
X209000Y43320
X134080Y101330
X200750Y116050
X207200Y98720
X140090Y44440
X203680Y101350
X303780Y174280
X326350Y167470
X140060Y50410
X140060Y113590
X209420Y119720
X209420Y137410
X209420Y161500
X209420Y193510
X209170Y85280
X209170Y113600
X300230Y124620
X316890Y155780
X324750Y221420
X211960Y119640
X211960Y137470
X211960Y161510
X211960Y193520
X211710Y85220
X211710Y113580
X211510Y43280
X140090Y42290
X142600Y50420
X142600Y113610
X142400Y199910
X142790Y192710
X142840Y120440
X137750Y179330
X133055Y181255
X325100Y217620
X316290Y224270
X301540Y217810
X290890Y224290
X301130Y202960
X290210Y209520
X326490Y202820
X315730Y208957
X301410Y187930
X288660Y194020
X197790Y207560
X325960Y172950
X315910Y179337
X308580Y148960
X33220Y106470
X197480Y58030
X128510Y57950
X197480Y127700
X128640Y126340
X128360Y206840
X197680Y292610
X128060Y293150
X218210Y53560
X148790Y54730
X150240Y123330
X219860Y127400
X149300Y203510
X218920Y203300
X149660Y289330
X307000Y213190
X288010Y212620
X330420Y217410
X306400Y203100
X331040Y172850
X306000Y187440
X312550Y204400
X314980Y198750
X287590Y199890
T17
X314970Y183190
X192520Y178100
X194710Y214810
X142390Y279220
X191540Y264210
X125560Y165350
X115370Y138180
X201310Y195900
X207620Y178700
X203780Y181130
X194750Y166480
X131470Y281660
X136460Y264150
X124390Y252670
X134610Y266260
X200760Y281970
X203300Y266780
X206870Y265180
X194260Y251900
X49980Y114720
X51640Y129220
X50360Y133150
X56490Y144780
X50050Y107090
X230600Y261680
X193160Y21220
X230690Y264220
X199520Y81640
X157404Y257784
X193630Y137380
X158290Y259510
X199830Y161750
X228060Y26310
X121230Y256330
X228130Y28812
X190940Y170470
X159060Y26480
X194660Y216560
X159100Y29020
X201000Y203500
X157740Y91870
X185670Y272010
X158080Y94080
X132980Y289350
X219350Y104070
X326420Y187870
X217080Y102560
X314700Y193932
X201060Y289590
X323860Y68610
X228250Y178120
X323860Y76110
X156880Y100650
X225960Y31380
X156690Y31560
X156740Y36600
X226330Y37860
X226460Y106850
X226320Y100840
X156530Y105530
X156860Y185850
X157230Y180470
X226300Y185920
X156720Y266490
X226430Y180650
X156370Y271630
X219170Y278580
X220080Y293060
X73630Y209440
X73650Y218540
X30380Y46800
X51580Y46770
X121640Y263970
X193910Y17060
X125120Y16970
X125280Y86320
X194170Y86250
X131630Y12800
X228300Y175580
X143070Y13660
X209250Y200810
X209250Y279180
X139850Y279220
X305560Y168400
X293530Y167120
X292680Y212710
X211790Y200770
X211790Y279200
X299340Y221570
X301290Y219960
X300790Y205150
X301230Y190040
X295010Y169720
X325800Y219720
X325710Y204400
X330400Y202540
X325940Y189450
X330420Y187640
X325400Y174740
X332410Y226860
X305580Y217760
X324750Y191160
X157820Y177912
X157580Y175400
X121290Y100930
X108070Y103000
X192490Y28850
X201310Y82370
X194350Y135530
X201400Y161770
X287370Y184600
X312950Y189610
T18
X36000Y228420
X14120Y226370
X328010Y253530
X38140Y219420
X26850Y186880
X327670Y146790
X303340Y245540
X57950Y117960
M30